<svg width="512" height="496" viewBox="0 0 512 496" fill="none" xmlns="http://www.w3.org/2000/svg">
<path d="M423.09 249.079C404.13 222.658 380.425 204.62 348.49 192.312L345.866 191.301H203.976V310.405L296.969 403.399H425.926V253.03L423.09 249.079Z" fill="#4B5BE4"/>
<path d="M286.664 16.233C264.258 16.233 242.639 22.844 224.143 35.351L217.494 39.847V191.961L257.04 235.828L261.702 236.892C269.846 238.751 278.244 239.694 286.664 239.694C348.273 239.694 398.395 189.572 398.395 127.963C398.395 66.354 348.272 16.233 286.664 16.233V16.233Z" fill="#8095FF"/>
<path d="M286.664 16.233V239.695C348.273 239.695 398.395 189.573 398.395 127.964C398.395 66.355 348.272 16.233 286.664 16.233V16.233Z" fill="#8066FF"/>
<path d="M327.73 275.265L327.345 274.485C308.239 235.736 277.794 208.09 236.858 192.312L234.234 191.301L115.823 191.302L113.199 192.314C44.433 218.819 0 288.687 0 370.31V495.768H385.073L327.73 275.265Z" fill="#00EE84"/>
<path d="M175.03 495.767H385.073L327.73 275.265L327.345 274.485C308.239 235.736 277.794 208.09 236.858 192.312L234.234 191.301H175.031V495.767H175.03Z" fill="#00CC71"/>
<path d="M200.716 236.602C260.757 222.41 297.925 162.231 283.732 102.19C269.539 42.1487 209.361 4.98113 149.32 19.1738C89.2783 33.3665 52.1107 93.545 66.3034 153.586C80.4961 213.627 140.675 250.795 200.716 236.602Z" fill="#68FFB1"/>
<path d="M385.387 242.541C315.572 242.541 258.774 299.339 258.774 369.154C258.774 438.969 315.572 495.767 385.387 495.767C455.202 495.767 502 438.969 502 369.154C502 299.339 455.202 242.541 385.387 242.541Z" fill="#E6F3FB"/>
<path d="M385.387 242.541V495.768C455.202 495.768 512 438.97 512 369.155C512 299.34 455.202 242.541 385.387 242.541V242.541Z" fill="#D1E9FF"/>
<path d="M442.55 354.154H400.387H397L370.387 354.154L328.223 354.154V384.154H370.387H379.5L400.387 384.154L442.55 384.154V354.154Z" fill="#8095FF"/>
<path d="M175.03 16.233V239.695C236.639 239.695 286.761 189.573 286.761 127.964C286.761 66.355 236.639 16.233 175.03 16.233V16.233Z" fill="#00EE84"/>
<path d="M400.387 354.154L385.387 354.154V384.154H400.387H442.55V354.154H400.387Z" fill="#8066FF"/>
</svg>
