<svg width="340" height="370" viewBox="0 0 340 370" fill="#614bb9" xmlns="http://www.w3.org/2000/svg">
<path d="M286.924 226.276L263.427 207.524C252.663 200.374 241.088 194.424 228.885 189.859C255.111 170.9 272.257 139.727 272.257 104.549C272.257 46.9004 226.21 0 169.61 0C113.01 0 66.9635 46.9004 66.9635 104.549C66.9635 139.727 84.1096 170.9 110.336 189.859C54.523 210.74 11.7161 260.397 0.612833 322.915C-1.43784 334.474 1.71225 346.264 9.24828 355.262C16.7141 364.17 27.6069 369.277 39.1351 369.277H300.085C311.614 369.277 322.506 364.17 329.972 355.262C337.512 346.264 340.658 334.474 338.608 322.915C337.239 315.204 335.384 307.691 333.087 300.404L320.503 270.463L300.085 240.273L286.924 226.276ZM96.9049 104.549C96.9049 63.4111 129.521 29.9414 169.61 29.9414C209.7 29.9414 242.32 63.4111 242.32 104.549C242.32 145.688 209.7 179.157 169.61 179.157C129.521 179.157 96.9049 145.688 96.9049 104.549ZM307.025 336.03C305.988 337.266 303.711 339.336 300.085 339.336H39.1351C35.5094 339.336 33.2326 337.266 32.1956 336.03C31.1195 334.743 29.412 332.007 30.0942 328.147C42.3437 259.169 101.018 209.099 169.61 209.099C238.203 209.099 296.881 259.169 309.126 328.147C309.813 332.007 308.105 334.743 307.025 336.03Z" fill="#614bb9"/>
</svg>
